STARTFONT 2.1
COMMENT $XConsortium: luBS10.bdf,v 1.7 94/04/02 16:23:04 gildea Exp $
COMMENT  (c) Copyright Bigelow & Holmes 1986, 1985. Lucida is a registered
COMMENT  trademark of Bigelow & Holmes. See LEGAL NOTICE file for terms 
COMMENT  of the license. 
COMMENT  
COMMENT  Translation to ISO8859-2 by Cub Soft;  Petr.Kolar@vslib.cz
COMMENT  
FONT -B&H-Lucida-Bold-R-Normal-Sans-14-100-100-100-P-89-ISO8859-2
SIZE 10 100 100
FONTBOUNDINGBOX 27 15 -9 -3
STARTPROPERTIES 20
COMMENT Begin LogicalFontDescription
FONTNAME_REGISTRY ""
FOUNDRY "B&H"
FAMILY_NAME "Lucida"
WEIGHT_NAME "Bold"
SLANT "R"
SETWIDTH_NAME "Normal"
ADD_STYLE_NAME "Sans"
PIXEL_SIZE 14
POINT_SIZE 100
RESOLUTION_X 100
RESOLUTION_Y 100
SPACING "P"
AVERAGE_WIDTH 89
CHARSET_REGISTRY "ISO8859"
CHARSET_ENCODING "2"
COMMENT END LogicalFontDescription
FONT_ASCENT 13
FONT_DESCENT 3
DEFAULT_CHAR 0
COPYRIGHT "Copyright Bigelow & Holmes 1986, 1985., Copyright 1996 Cub Soft"
FACE_NAME "Lucida Sans Bold"
ENDPROPERTIES
CHARS 191
STARTCHAR space
ENCODING 32
SWIDTH 343 0
DWIDTH 5 0
BBX 1 1 0 0
BITMAP
00
ENDCHAR
STARTCHAR exclam
ENCODING 33
SWIDTH 265 0
DWIDTH 5 0
BBX 2 10 1 0
BITMAP
c0
c0
c0
c0
c0
80
80
00
00
c0
ENDCHAR
STARTCHAR quotedbl
ENCODING 34
SWIDTH 530 0
DWIDTH 7 0
BBX 6 4 1 6
BITMAP
ec
cc
c8
88
ENDCHAR
STARTCHAR numbersign
ENCODING 35
SWIDTH 687 0
DWIDTH 10 0
BBX 9 10 0 0
BITMAP
0900
1300
1200
7f80
1200
2400
ff00
2400
6400
4800
ENDCHAR
STARTCHAR dollar
ENCODING 36
SWIDTH 687 0
DWIDTH 10 0
BBX 7 14 1 -2
BITMAP
10
10
7e
76
f0
f0
78
3c
1e
16
de
fc
10
10
ENDCHAR
STARTCHAR percent
ENCODING 37
SWIDTH 898 0
DWIDTH 13 0
BBX 12 10 0 0
BITMAP
6060
9080
9180
9100
9200
6400
0860
1890
1090
6060
ENDCHAR
STARTCHAR ampersand
ENCODING 38
SWIDTH 792 0
DWIDTH 11 0
BBX 10 10 1 0
BITMAP
1e00
3100
3100
3f00
3c40
fcc0
ccc0
c780
e300
3fc0
ENDCHAR
STARTCHAR apostrophe
ENCODING 39
SWIDTH 265 0
DWIDTH 4 0
BBX 3 4 0 6
BITMAP
e0
e0
60
c0
ENDCHAR
STARTCHAR parenleft
ENCODING 40
SWIDTH 386 0
DWIDTH 5 0
BBX 3 13 1 -3
BITMAP
20
60
60
c0
c0
c0
c0
c0
c0
40
60
60
20
ENDCHAR
STARTCHAR parenright
ENCODING 41
SWIDTH 386 0
DWIDTH 5 0
BBX 3 13 1 -3
BITMAP
80
c0
c0
60
60
60
60
60
60
40
c0
c0
80
ENDCHAR
STARTCHAR asterisk
ENCODING 42
SWIDTH 464 0
DWIDTH 6 0
BBX 5 4 1 6
BITMAP
20
d8
d0
58
ENDCHAR
STARTCHAR plus
ENCODING 43
SWIDTH 687 0
DWIDTH 10 0
BBX 7 8 1 0
BITMAP
10
10
10
fe
10
10
10
10
ENDCHAR
STARTCHAR comma
ENCODING 44
SWIDTH 343 0
DWIDTH 5 0
BBX 3 5 1 -3
BITMAP
e0
e0
60
60
c0
ENDCHAR
STARTCHAR minus
ENCODING 45
SWIDTH 687 0
DWIDTH 10 0
BBX 8 1 1 4
BITMAP
ff
ENDCHAR
STARTCHAR period
ENCODING 46
SWIDTH 343 0
DWIDTH 5 0
BBX 3 2 1 0
BITMAP
e0
e0
ENDCHAR
STARTCHAR slash
ENCODING 47
SWIDTH 596 0
DWIDTH 8 0
BBX 8 13 0 -3
BITMAP
03
02
04
04
08
08
18
10
10
20
20
40
c0
ENDCHAR
STARTCHAR zero
ENCODING 48
SWIDTH 687 0
DWIDTH 10 0
BBX 9 10 0 0
BITMAP
3e00
6300
4100
c180
c180
c180
c180
4100
6300
3e00
ENDCHAR
STARTCHAR one
ENCODING 49
SWIDTH 687 0
DWIDTH 10 0
BBX 3 10 3 0
BITMAP
e0
60
60
60
60
60
60
60
60
60
ENDCHAR
STARTCHAR two
ENCODING 50
SWIDTH 687 0
DWIDTH 10 0
BBX 8 10 1 0
BITMAP
fc
87
03
03
06
0c
18
70
e0
ff
ENDCHAR
STARTCHAR three
ENCODING 51
SWIDTH 687 0
DWIDTH 10 0
BBX 7 10 1 0
BITMAP
fc
86
06
06
78
0c
06
06
8e
fc
ENDCHAR
STARTCHAR four
ENCODING 52
SWIDTH 687 0
DWIDTH 10 0
BBX 8 10 1 0
BITMAP
06
0e
16
26
66
c6
ff
06
06
06
ENDCHAR
STARTCHAR five
ENCODING 53
SWIDTH 687 0
DWIDTH 10 0
BBX 7 10 2 0
BITMAP
fe
80
80
f8
0c
06
06
06
8c
f8
ENDCHAR
STARTCHAR six
ENCODING 54
SWIDTH 687 0
DWIDTH 10 0
BBX 8 10 1 0
BITMAP
1e
62
40
dc
e7
c3
c3
c3
66
3c
ENDCHAR
STARTCHAR seven
ENCODING 55
SWIDTH 687 0
DWIDTH 10 0
BBX 7 10 2 0
BITMAP
fe
06
04
08
18
30
30
60
60
e0
ENDCHAR
STARTCHAR eight
ENCODING 56
SWIDTH 687 0
DWIDTH 10 0
BBX 8 10 1 0
BITMAP
3e
63
63
7e
3c
7e
c7
c3
e3
7c
ENDCHAR
STARTCHAR nine
ENCODING 57
SWIDTH 687 0
DWIDTH 10 0
BBX 8 10 1 0
BITMAP
3c
66
c3
c3
c3
e7
3b
02
46
78
ENDCHAR
STARTCHAR colon
ENCODING 58
SWIDTH 343 0
DWIDTH 5 0
BBX 2 7 1 0
BITMAP
c0
c0
00
00
00
c0
c0
ENDCHAR
STARTCHAR semicolon
ENCODING 59
SWIDTH 343 0
DWIDTH 5 0
BBX 2 10 1 -3
BITMAP
c0
c0
00
00
00
c0
c0
40
40
80
ENDCHAR
STARTCHAR less
ENCODING 60
SWIDTH 687 0
DWIDTH 10 0
BBX 7 8 0 0
BITMAP
02
06
18
e0
60
18
06
02
ENDCHAR
STARTCHAR equal
ENCODING 61
SWIDTH 687 0
DWIDTH 10 0
BBX 8 5 1 1
BITMAP
ff
00
00
00
ff
ENDCHAR
STARTCHAR greater
ENCODING 62
SWIDTH 687 0
DWIDTH 10 0
BBX 7 8 1 0
BITMAP
80
c0
30
0c
0e
30
c0
80
ENDCHAR
STARTCHAR question
ENCODING 63
SWIDTH 572 0
DWIDTH 8 0
BBX 7 10 1 0
BITMAP
fc
86
06
04
08
10
30
00
00
30
ENDCHAR
STARTCHAR at
ENCODING 64
SWIDTH 833 0
DWIDTH 12 0
BBX 10 10 2 0
BITMAP
0f00
3080
4040
4e40
9240
a640
ae80
bf00
4000
3c00
ENDCHAR
STARTCHAR A
ENCODING 65
SWIDTH 773 0
DWIDTH 11 0
BBX 10 10 0 0
BITMAP
0c00
1600
1600
1600
2300
2300
3f00
4180
4180
c1c0
ENDCHAR
STARTCHAR B
ENCODING 66
SWIDTH 669 0
DWIDTH 9 0
BBX 7 10 1 0
BITMAP
fc
c6
c6
ce
f8
cc
c6
c6
c6
fc
ENDCHAR
STARTCHAR C
ENCODING 67
SWIDTH 726 0
DWIDTH 10 0
BBX 9 10 1 0
BITMAP
1f80
7080
6000
c000
c000
c000
c000
6000
7080
1f80
ENDCHAR
STARTCHAR D
ENCODING 68
SWIDTH 819 0
DWIDTH 11 0
BBX 10 10 1 0
BITMAP
fe00
c380
c180
c0c0
c0c0
c0c0
c0c0
c080
c180
fe00
ENDCHAR
STARTCHAR E
ENCODING 69
SWIDTH 645 0
DWIDTH 9 0
BBX 7 10 1 0
BITMAP
fe
c0
c0
c0
fc
c0
c0
c0
c0
fe
ENDCHAR
STARTCHAR F
ENCODING 70
SWIDTH 602 0
DWIDTH 8 0
BBX 6 10 2 0
BITMAP
fc
c0
c0
c0
f8
c0
c0
c0
c0
c0
ENDCHAR
STARTCHAR G
ENCODING 71
SWIDTH 759 0
DWIDTH 11 0
BBX 9 10 1 0
BITMAP
1f80
7080
6000
c000
c000
c000
c180
6180
7180
1f80
ENDCHAR
STARTCHAR H
ENCODING 72
SWIDTH 813 0
DWIDTH 11 0
BBX 9 10 1 0
BITMAP
c180
c180
c180
c180
ff80
c180
c180
c180
c180
c180
ENDCHAR
STARTCHAR I
ENCODING 73
SWIDTH 361 0
DWIDTH 5 0
BBX 2 10 2 0
BITMAP
c0
c0
c0
c0
c0
c0
c0
c0
c0
c0
ENDCHAR
STARTCHAR J
ENCODING 74
SWIDTH 501 0
DWIDTH 7 0
BBX 5 13 1 -3
BITMAP
18
18
18
18
18
18
18
18
18
18
18
18
f0
ENDCHAR
STARTCHAR K
ENCODING 75
SWIDTH 753 0
DWIDTH 11 0
BBX 9 10 1 0
BITMAP
c300
c600
cc00
d800
d000
f800
dc00
ce00
c600
c380
ENDCHAR
STARTCHAR L
ENCODING 76
SWIDTH 620 0
DWIDTH 9 0
BBX 7 10 1 0
BITMAP
c0
c0
c0
c0
c0
c0
c0
c0
c0
fe
ENDCHAR
STARTCHAR M
ENCODING 77
SWIDTH 940 0
DWIDTH 13 0
BBX 11 10 1 0
BITMAP
e0e0
e0e0
b0e0
b160
b160
9a60
9a60
8a60
8c60
8060
ENDCHAR
STARTCHAR N
ENCODING 78
SWIDTH 783 0
DWIDTH 11 0
BBX 9 10 1 0
BITMAP
c080
e080
f080
b080
9880
8c80
8680
8780
8380
8180
ENDCHAR
STARTCHAR O
ENCODING 79
SWIDTH 855 0
DWIDTH 12 0
BBX 11 10 0 0
BITMAP
1f00
71c0
60c0
c060
c060
c060
c060
60c0
71c0
1f00
ENDCHAR
STARTCHAR P
ENCODING 80
SWIDTH 657 0
DWIDTH 9 0
BBX 7 10 1 0
BITMAP
fc
ce
c6
c6
cc
f8
c0
c0
c0
c0
ENDCHAR
STARTCHAR Q
ENCODING 81
SWIDTH 855 0
DWIDTH 12 0
BBX 13 13 0 -3
BITMAP
1f00
71c0
60c0
c060
c060
c060
c060
60e0
71c0
1f80
01f8
00f0
0030
ENDCHAR
STARTCHAR R
ENCODING 82
SWIDTH 734 0
DWIDTH 10 0
BBX 9 10 1 0
BITMAP
fe00
c300
c300
c300
c600
f800
cc00
ce00
c600
c780
ENDCHAR
STARTCHAR S
ENCODING 83
SWIDTH 594 0
DWIDTH 8 0
BBX 7 10 1 0
BITMAP
7c
e4
e0
e0
78
1c
06
06
86
f8
ENDCHAR
STARTCHAR T
ENCODING 84
SWIDTH 735 0
DWIDTH 10 0
BBX 10 10 0 0
BITMAP
ffc0
0c00
0c00
0c00
0c00
0c00
0c00
0c00
0c00
0c00
ENDCHAR
STARTCHAR U
ENCODING 85
SWIDTH 783 0
DWIDTH 11 0
BBX 9 10 1 0
BITMAP
c180
c180
c180
c180
c180
c180
c180
c180
6300
3e00
ENDCHAR
STARTCHAR V
ENCODING 86
SWIDTH 735 0
DWIDTH 10 0
BBX 10 10 0 0
BITMAP
e0c0
6080
6080
3100
3100
3900
1a00
1a00
0e00
0c00
ENDCHAR
STARTCHAR W
ENCODING 87
SWIDTH 940 0
DWIDTH 13 0
BBX 13 10 0 0
BITMAP
c308
6310
6310
6590
65b0
35a0
35a0
39a0
38e0
18c0
ENDCHAR
STARTCHAR X
ENCODING 88
SWIDTH 699 0
DWIDTH 10 0
BBX 9 10 1 0
BITMAP
6100
7200
3200
1c00
1c00
1c00
1e00
2600
6700
c380
ENDCHAR
STARTCHAR Y
ENCODING 89
SWIDTH 738 0
DWIDTH 10 0
BBX 8 10 1 0
BITMAP
e3
62
74
34
38
18
18
18
18
18
ENDCHAR
STARTCHAR Z
ENCODING 90
SWIDTH 675 0
DWIDTH 9 0
BBX 8 10 1 0
BITMAP
ff
07
0e
0c
1c
38
30
70
e0
ff
ENDCHAR
STARTCHAR bracketleft
ENCODING 91
SWIDTH 386 0
DWIDTH 5 0
BBX 3 13 1 -3
BITMAP
e0
c0
c0
c0
c0
c0
c0
c0
c0
c0
c0
c0
e0
ENDCHAR
STARTCHAR backslash
ENCODING 92
SWIDTH 596 0
DWIDTH 8 0
BBX 8 13 0 -3
BITMAP
c0
40
20
20
10
10
18
08
08
04
04
02
03
ENDCHAR
STARTCHAR bracketright
ENCODING 93
SWIDTH 386 0
DWIDTH 5 0
BBX 3 13 1 -3
BITMAP
e0
60
60
60
60
60
60
60
60
60
60
60
e0
ENDCHAR
STARTCHAR asciicircum
ENCODING 94
SWIDTH 687 0
DWIDTH 10 0
BBX 8 7 1 2
BITMAP
08
18
18
24
24
42
c3
ENDCHAR
STARTCHAR underscore
ENCODING 95
SWIDTH 500 0
DWIDTH 7 0
BBX 6 1 1 -2
BITMAP
fc
ENDCHAR
STARTCHAR grave
ENCODING 96
SWIDTH 675 0
DWIDTH 9 0
BBX 4 1 2 9
BITMAP
f0
ENDCHAR
STARTCHAR a
ENCODING 97
SWIDTH 623 0
DWIDTH 9 0
BBX 8 7 0 0
BITMAP
7c
46
7e
e6
c6
cf
77
ENDCHAR
STARTCHAR b
ENCODING 98
SWIDTH 696 0
DWIDTH 10 0
BBX 8 10 1 0
BITMAP
c0
c0
c0
de
e7
c3
c3
c3
c7
fe
ENDCHAR
STARTCHAR c
ENCODING 99
SWIDTH 545 0
DWIDTH 8 0
BBX 6 7 1 0
BITMAP
3c
60
c0
c0
c0
60
3c
ENDCHAR
STARTCHAR d
ENCODING 100
SWIDTH 696 0
DWIDTH 10 0
BBX 8 10 1 0
BITMAP
03
03
03
3f
63
c3
c3
c3
e7
7b
ENDCHAR
STARTCHAR e
ENCODING 101
SWIDTH 614 0
DWIDTH 9 0
BBX 8 7 0 0
BITMAP
3e
63
c3
ff
e0
70
3f
ENDCHAR
STARTCHAR f
ENCODING 102
SWIDTH 461 0
DWIDTH 6 0
BBX 6 10 0 0
BITMAP
3c
64
60
f8
60
60
60
60
60
60
ENDCHAR
STARTCHAR g
ENCODING 103
SWIDTH 696 0
DWIDTH 10 0
BBX 8 10 1 -3
BITMAP
7f
63
c3
c3
c3
e7
7b
03
47
7c
ENDCHAR
STARTCHAR h
ENCODING 104
SWIDTH 693 0
DWIDTH 10 0
BBX 7 10 1 0
BITMAP
c0
c0
c0
dc
e6
c6
c6
c6
c6
c6
ENDCHAR
STARTCHAR i
ENCODING 105
SWIDTH 361 0
DWIDTH 5 0
BBX 2 10 2 0
BITMAP
c0
00
00
c0
c0
c0
c0
c0
c0
c0
ENDCHAR
STARTCHAR j
ENCODING 106
SWIDTH 361 0
DWIDTH 5 0
BBX 5 13 0 -3
BITMAP
18
00
00
18
18
18
18
18
18
18
18
98
f0
ENDCHAR
STARTCHAR k
ENCODING 107
SWIDTH 681 0
DWIDTH 10 0
BBX 7 10 2 0
BITMAP
c0
c0
c0
cc
c8
d0
f0
d8
dc
ce
ENDCHAR
STARTCHAR l
ENCODING 108
SWIDTH 361 0
DWIDTH 5 0
BBX 2 10 2 0
BITMAP
c0
c0
c0
c0
c0
c0
c0
c0
c0
c0
ENDCHAR
STARTCHAR m
ENCODING 109
SWIDTH 1006 0
DWIDTH 14 0
BBX 12 7 1 0
BITMAP
dcf0
e730
c630
c630
c630
c630
c630
ENDCHAR
STARTCHAR n
ENCODING 110
SWIDTH 693 0
DWIDTH 10 0
BBX 7 7 1 0
BITMAP
dc
e6
c6
c6
c6
c6
c6
ENDCHAR
STARTCHAR o
ENCODING 111
SWIDTH 675 0
DWIDTH 9 0
BBX 8 7 1 0
BITMAP
3c
66
c3
c3
c3
66
3c
ENDCHAR
STARTCHAR p
ENCODING 112
SWIDTH 696 0
DWIDTH 10 0
BBX 8 10 1 -3
BITMAP
de
e7
c3
c3
c3
c6
fc
c0
c0
c0
ENDCHAR
STARTCHAR q
ENCODING 113
SWIDTH 696 0
DWIDTH 10 0
BBX 8 10 1 -3
BITMAP
7f
e3
c3
c3
c3
e7
7b
03
03
03
ENDCHAR
STARTCHAR r
ENCODING 114
SWIDTH 500 0
DWIDTH 7 0
BBX 5 7 1 0
BITMAP
d8
f8
c0
c0
c0
c0
c0
ENDCHAR
STARTCHAR s
ENCODING 115
SWIDTH 622 0
DWIDTH 9 0
BBX 7 7 1 0
BITMAP
7c
e0
f8
fe
3e
8e
fc
ENDCHAR
STARTCHAR t
ENCODING 116
SWIDTH 436 0
DWIDTH 6 0
BBX 5 9 1 0
BITMAP
60
60
f8
60
60
60
60
68
38
ENDCHAR
STARTCHAR u
ENCODING 117
SWIDTH 693 0
DWIDTH 10 0
BBX 7 7 1 0
BITMAP
c6
c6
c6
c6
c6
ce
76
ENDCHAR
STARTCHAR v
ENCODING 118
SWIDTH 663 0
DWIDTH 9 0
BBX 9 7 0 0
BITMAP
e180
6100
3300
3200
3a00
1c00
1c00
ENDCHAR
STARTCHAR w
ENCODING 119
SWIDTH 885 0
DWIDTH 12 0
BBX 12 7 0 0
BITMAP
c730
6720
6720
6b60
79c0
39c0
31c0
ENDCHAR
STARTCHAR x
ENCODING 120
SWIDTH 568 0
DWIDTH 8 0
BBX 7 7 1 0
BITMAP
e6
7c
38
38
3c
7c
ce
ENDCHAR
STARTCHAR y
ENCODING 121
SWIDTH 645 0
DWIDTH 9 0
BBX 9 10 0 -3
BITMAP
e180
6100
7200
3200
3400
1c00
1800
1800
3000
7000
ENDCHAR
STARTCHAR z
ENCODING 122
SWIDTH 608 0
DWIDTH 9 0
BBX 7 7 1 0
BITMAP
fe
0e
1c
38
70
e0
fe
ENDCHAR
STARTCHAR braceleft
ENCODING 123
SWIDTH 386 0
DWIDTH 5 0
BBX 4 13 1 -3
BITMAP
30
70
60
70
30
20
c0
20
30
70
60
70
30
ENDCHAR
STARTCHAR bar
ENCODING 124
SWIDTH 265 0
DWIDTH 4 0
BBX 1 13 1 -3
BITMAP
80
80
80
80
80
80
80
80
80
80
80
80
80
ENDCHAR
STARTCHAR braceright
ENCODING 125
SWIDTH 386 0
DWIDTH 5 0
BBX 4 13 1 -3
BITMAP
80
c0
c0
c0
c0
40
30
40
c0
c0
c0
c0
80
ENDCHAR
STARTCHAR asciitilde
ENCODING 126
SWIDTH 687 0
DWIDTH 10 0
BBX 8 3 1 2
BITMAP
61
99
86
ENDCHAR
STARTCHAR nobreakspace
ENCODING 160
SWIDTH 343 0
DWIDTH 5 0
BBX 1 1 0 0
BITMAP
00
ENDCHAR
STARTCHAR Aogonek
ENCODING 161
SWIDTH 773 0
DWIDTH 11 0
BBX 10 11 0 -1
BITMAP
0c00
1600
1600
1600
2300
2300
3f00
4180
4180
c1c0
1c00
ENDCHAR
STARTCHAR breve
ENCODING 162
SWIDTH 675 0
DWIDTH 9 0
BBX 5 1 2 9
BITMAP
f8
ENDCHAR
STARTCHAR Lstroke
ENCODING 163
SWIDTH 620 0
DWIDTH 9 0
BBX 8 10 0 0
BITMAP
60
60
60
70
70
e0
e0
e0
60
7f
ENDCHAR
STARTCHAR currency
ENCODING 164
SWIDTH 687 0
DWIDTH 10 0
BBX 10 10 0 0
BITMAP
c040
40c0
2d00
3300
2100
2100
3300
3f00
c080
80c0
ENDCHAR
STARTCHAR Lcaron
ENCODING 165
SWIDTH 620 0
DWIDTH 9 0
BBX 7 11 1 0
BITMAP
1c
dc
cc
d8
c0
c0
c0
c0
c0
c0
fe
ENDCHAR
STARTCHAR Sacute
ENCODING 166
SWIDTH 594 0
DWIDTH 8 0
BBX 7 12 1 0
BITMAP
78
00
7c
e4
e0
e0
78
1c
06
06
86
f8
ENDCHAR
STARTCHAR section
ENCODING 167
SWIDTH 693 0
DWIDTH 10 0
BBX 7 13 1 -3
BITMAP
7c
e0
e0
f8
7c
8e
82
e2
7c
1e
0e
8e
fc
ENDCHAR
STARTCHAR diaeresis
ENCODING 168
SWIDTH 675 0
DWIDTH 9 0
BBX 5 1 2 9
BITMAP
d8
ENDCHAR
STARTCHAR Scaron
ENCODING 169
SWIDTH 594 0
DWIDTH 8 0
BBX 7 12 1 0
BITMAP
f8
00
7c
e4
e0
e0
78
1c
06
06
86
f8
ENDCHAR
STARTCHAR Scedilla
ENCODING 170
SWIDTH 594 0
DWIDTH 8 0
BBX 7 13 1 -3
BITMAP
7c
e4
e0
e0
78
1c
06
06
86
f8
30
10
38
ENDCHAR
STARTCHAR Tcaron
ENCODING 171
SWIDTH 735 0
DWIDTH 10 0
BBX 10 12 0 0
BITMAP
3e00
0000
ffc0
0c00
0c00
0c00
0c00
0c00
0c00
0c00
0c00
0c00
ENDCHAR
STARTCHAR Zacute
ENCODING 172
SWIDTH 675 0
DWIDTH 9 0
BBX 8 12 1 0
BITMAP
3c
00
ff
07
0e
0c
1c
38
30
70
e0
ff
ENDCHAR
STARTCHAR hyphen
ENCODING 173
SWIDTH 289 0
DWIDTH 4 0
BBX 3 1 1 4
BITMAP
e0
ENDCHAR
STARTCHAR Zcaron
ENCODING 174
SWIDTH 675 0
DWIDTH 9 0
BBX 8 12 1 0
BITMAP
7c
00
ff
07
0e
0c
1c
38
30
70
e0
ff
ENDCHAR
STARTCHAR Zabovedot
ENCODING 175
SWIDTH 675 0
DWIDTH 9 0
BBX 8 12 1 0
BITMAP
18
00
ff
07
0e
0c
1c
38
30
70
e0
ff
ENDCHAR
STARTCHAR degree
ENCODING 176
SWIDTH 241 0
DWIDTH 3 0
BBX 3 2 2 8
BITMAP
e0
60
ENDCHAR
STARTCHAR aogonek
ENCODING 177
SWIDTH 623 0
DWIDTH 9 0
BBX 8 8 0 -1
BITMAP
7c
46
7e
e6
c6
cf
77
38
ENDCHAR
STARTCHAR ogonek
ENCODING 178
SWIDTH 675 0
DWIDTH 9 0
BBX 3 1 3 -3
BITMAP
e0
ENDCHAR
STARTCHAR lstroke
ENCODING 179
SWIDTH 361 0
DWIDTH 5 0
BBX 4 10 1 0
BITMAP
60
60
60
70
70
e0
e0
60
60
60
ENDCHAR
STARTCHAR acute
ENCODING 180
SWIDTH 675 0
DWIDTH 9 0
BBX 4 1 3 9
BITMAP
f0
ENDCHAR
STARTCHAR lcaron
ENCODING 181
SWIDTH 648 0
DWIDTH 9 0
BBX 6 11 2 0
BITMAP
1c
dc
cc
d8
c0
c0
c0
c0
c0
c0
c0
ENDCHAR
STARTCHAR sacute
ENCODING 182
SWIDTH 622 0
DWIDTH 9 0
BBX 7 9 1 0
BITMAP
78
00
7c
e0
f8
fe
3e
8e
fc
ENDCHAR
STARTCHAR caron
ENCODING 183
SWIDTH 675 0
DWIDTH 9 0
BBX 5 1 2 9
BITMAP
f8
ENDCHAR
STARTCHAR cedilla
ENCODING 184
SWIDTH 675 0
DWIDTH 9 0
BBX 3 3 3 -3
BITMAP
c0
40
e0
ENDCHAR
STARTCHAR scaron
ENCODING 185
SWIDTH 622 0
DWIDTH 9 0
BBX 7 9 1 0
BITMAP
f8
00
7c
e0
f8
fe
3e
8e
fc
ENDCHAR
STARTCHAR scedilla
ENCODING 186
SWIDTH 622 0
DWIDTH 9 0
BBX 7 10 1 -3
BITMAP
7c
e0
f8
fe
3e
8e
fc
30
10
38
ENDCHAR
STARTCHAR tcaron
ENCODING 187
SWIDTH 576 0
DWIDTH 8 0
BBX 7 12 1 0
BITMAP
0e
0e
06
6c
60
f8
60
60
60
60
68
38
ENDCHAR
STARTCHAR zacute
ENCODING 188
SWIDTH 608 0
DWIDTH 9 0
BBX 7 9 1 0
BITMAP
3c
00
fe
0e
1c
38
70
e0
fe
ENDCHAR
STARTCHAR doubleacute
ENCODING 189
SWIDTH 675 0
DWIDTH 9 0
BBX 5 1 3 9
BITMAP
f8
ENDCHAR
STARTCHAR zcaron
ENCODING 190
SWIDTH 608 0
DWIDTH 9 0
BBX 7 9 1 0
BITMAP
7c
00
fe
0e
1c
38
70
e0
fe
ENDCHAR
STARTCHAR zabovedot
ENCODING 191
SWIDTH 608 0
DWIDTH 9 0
BBX 7 9 1 0
BITMAP
18
00
fe
0e
1c
38
70
e0
fe
ENDCHAR
STARTCHAR Racute
ENCODING 192
SWIDTH 734 0
DWIDTH 10 0
BBX 9 12 1 0
BITMAP
3c00
0000
fe00
c300
c300
c300
c600
f800
cc00
ce00
c600
c780
ENDCHAR
STARTCHAR Aacute
ENCODING 193
SWIDTH 773 0
DWIDTH 11 0
BBX 10 12 0 0
BITMAP
0f00
0000
0c00
1600
1600
1600
2300
2300
3f00
4180
4180
c1c0
ENDCHAR
STARTCHAR Acircumflex
ENCODING 194
SWIDTH 773 0
DWIDTH 11 0
BBX 10 12 0 0
BITMAP
1f00
0000
0c00
1600
1600
1600
2300
2300
3f00
4180
4180
c1c0
ENDCHAR
STARTCHAR Abreve
ENCODING 195
SWIDTH 773 0
DWIDTH 11 0
BBX 10 12 0 0
BITMAP
3e00
0000
0c00
1600
1600
1600
2300
2300
3f00
4180
4180
c1c0
ENDCHAR
STARTCHAR Adiaeresis
ENCODING 196
SWIDTH 773 0
DWIDTH 11 0
BBX 10 12 0 0
BITMAP
1b00
0000
0c00
1600
1600
1600
2300
2300
3f00
4180
4180
c1c0
ENDCHAR
STARTCHAR Lacute
ENCODING 197
SWIDTH 620 0
DWIDTH 9 0
BBX 8 12 0 0
BITMAP
f0
00
60
60
60
60
60
60
60
60
60
7f
ENDCHAR
STARTCHAR Cacute
ENCODING 198
SWIDTH 726 0
DWIDTH 10 0
BBX 9 12 1 0
BITMAP
1e00
0000
1f80
7080
6000
c000
c000
c000
c000
6000
7080
1f80
ENDCHAR
STARTCHAR Ccedilla
ENCODING 199
SWIDTH 726 0
DWIDTH 10 0
BBX 9 13 1 -3
BITMAP
1f80
7080
6000
c000
c000
c000
c000
6000
7080
1f80
0800
0800
1c00
ENDCHAR
STARTCHAR Ccaron
ENCODING 200
SWIDTH 726 0
DWIDTH 10 0
BBX 9 12 1 0
BITMAP
3e00
0000
1f80
7080
6000
c000
c000
c000
c000
6000
7080
1f80
ENDCHAR
STARTCHAR Eacute
ENCODING 201
SWIDTH 645 0
DWIDTH 9 0
BBX 7 12 1 0
BITMAP
3c
00
fe
c0
c0
c0
fc
c0
c0
c0
c0
fe
ENDCHAR
STARTCHAR Eogonek
ENCODING 202
SWIDTH 645 0
DWIDTH 9 0
BBX 7 11 1 -1
BITMAP
fe
c0
c0
c0
fc
c0
c0
c0
c0
fe
38
ENDCHAR
STARTCHAR Ediaeresis
ENCODING 203
SWIDTH 645 0
DWIDTH 9 0
BBX 7 12 1 0
BITMAP
6c
00
fe
c0
c0
c0
fc
c0
c0
c0
c0
fe
ENDCHAR
STARTCHAR Ecaron
ENCODING 204
SWIDTH 645 0
DWIDTH 9 0
BBX 7 12 1 0
BITMAP
7c
00
fe
c0
c0
c0
fc
c0
c0
c0
c0
fe
ENDCHAR
STARTCHAR Iacute
ENCODING 205
SWIDTH 361 0
DWIDTH 5 0
BBX 4 12 2 0
BITMAP
f0
00
c0
c0
c0
c0
c0
c0
c0
c0
c0
c0
ENDCHAR
STARTCHAR Icircumflex
ENCODING 206
SWIDTH 361 0
DWIDTH 5 0
BBX 5 12 3 0
BITMAP
f8
00
60
60
60
60
60
60
60
60
60
60
ENDCHAR
STARTCHAR Dcaron
ENCODING 207
SWIDTH 819 0
DWIDTH 11 0
BBX 10 12 1 0
BITMAP
3e00
0000
fe00
c380
c180
c0c0
c0c0
c0c0
c0c0
c080
c180
fe00
ENDCHAR
STARTCHAR Dstroke
ENCODING 208
SWIDTH 819 0
DWIDTH 11 0
BBX 11 10 0 0
BITMAP
7f00
61c0
60c0
6060
f860
6060
6060
6040
60c0
7f00
ENDCHAR
STARTCHAR Nacute
ENCODING 209
SWIDTH 783 0
DWIDTH 11 0
BBX 9 12 1 0
BITMAP
1e00
0000
c080
e080
f080
b080
9880
8c80
8680
8780
8380
8180
ENDCHAR
STARTCHAR Ncaron
ENCODING 210
SWIDTH 783 0
DWIDTH 11 0
BBX 9 12 1 0
BITMAP
3e00
0000
c080
e080
f080
b080
9880
8c80
8680
8780
8380
8180
ENDCHAR
STARTCHAR Oacute
ENCODING 211
SWIDTH 855 0
DWIDTH 12 0
BBX 11 12 0 0
BITMAP
0f00
0000
1f00
71c0
60c0
c060
c060
c060
c060
60c0
71c0
1f00
ENDCHAR
STARTCHAR Ocircumflex
ENCODING 212
SWIDTH 855 0
DWIDTH 12 0
BBX 11 12 0 0
BITMAP
1f00
0000
1f00
71c0
60c0
c060
c060
c060
c060
60c0
71c0
1f00
ENDCHAR
STARTCHAR Odoubleacute
ENCODING 213
SWIDTH 855 0
DWIDTH 12 0
BBX 11 12 0 0
BITMAP
1f00
0000
1f00
71c0
60c0
c060
c060
c060
c060
60c0
71c0
1f00
ENDCHAR
STARTCHAR Odiaeresis
ENCODING 214
SWIDTH 855 0
DWIDTH 12 0
BBX 11 12 0 0
BITMAP
1b00
0000
1f00
71c0
60c0
c060
c060
c060
c060
60c0
71c0
1f00
ENDCHAR
STARTCHAR multiply
ENCODING 215
SWIDTH 687 0
DWIDTH 10 0
BBX 8 8 1 0
BITMAP
c1
43
24
18
18
24
c2
83
ENDCHAR
STARTCHAR Rcaron
ENCODING 216
SWIDTH 734 0
DWIDTH 10 0
BBX 9 12 1 0
BITMAP
7c00
0000
fe00
c300
c300
c300
c600
f800
cc00
ce00
c600
c780
ENDCHAR
STARTCHAR Uring
ENCODING 217
SWIDTH 783 0
DWIDTH 11 0
BBX 9 12 1 0
BITMAP
0c00
0000
c180
c180
c180
c180
c180
c180
c180
c180
6300
3e00
ENDCHAR
STARTCHAR Uacute
ENCODING 218
SWIDTH 783 0
DWIDTH 11 0
BBX 9 12 1 0
BITMAP
1e00
0000
c180
c180
c180
c180
c180
c180
c180
c180
6300
3e00
ENDCHAR
STARTCHAR Udoubleacute
ENCODING 219
SWIDTH 783 0
DWIDTH 11 0
BBX 9 12 1 0
BITMAP
3e00
0000
c180
c180
c180
c180
c180
c180
c180
c180
6300
3e00
ENDCHAR
STARTCHAR Udiaeresis
ENCODING 220
SWIDTH 783 0
DWIDTH 11 0
BBX 9 12 1 0
BITMAP
3600
0000
c180
c180
c180
c180
c180
c180
c180
c180
6300
3e00
ENDCHAR
STARTCHAR Yacute
ENCODING 221
SWIDTH 738 0
DWIDTH 10 0
BBX 8 12 1 0
BITMAP
1e
00
e3
62
74
34
38
18
18
18
18
18
ENDCHAR
STARTCHAR Tcedilla
ENCODING 222
SWIDTH 735 0
DWIDTH 10 0
BBX 10 13 0 -3
BITMAP
ffc0
0c00
0c00
0c00
0c00
0c00
0c00
0c00
0c00
0c00
1800
0800
1c00
ENDCHAR
STARTCHAR ssharp
ENCODING 223
SWIDTH 724 0
DWIDTH 10 0
BBX 9 10 1 0
BITMAP
3c00
ce00
cc00
d800
d800
de00
cf00
c380
d180
df00
ENDCHAR
STARTCHAR racute
ENCODING 224
SWIDTH 500 0
DWIDTH 7 0
BBX 5 9 1 0
BITMAP
78
00
d8
f8
c0
c0
c0
c0
c0
ENDCHAR
STARTCHAR aacute
ENCODING 225
SWIDTH 623 0
DWIDTH 9 0
BBX 8 9 0 0
BITMAP
1e
00
7c
46
7e
e6
c6
cf
77
ENDCHAR
STARTCHAR acircumflex
ENCODING 226
SWIDTH 623 0
DWIDTH 9 0
BBX 8 9 0 0
BITMAP
3e
00
7c
46
7e
e6
c6
cf
77
ENDCHAR
STARTCHAR abreve
ENCODING 227
SWIDTH 623 0
DWIDTH 9 0
BBX 8 9 0 0
BITMAP
7c
00
7c
46
7e
e6
c6
cf
77
ENDCHAR
STARTCHAR adiaeresis
ENCODING 228
SWIDTH 623 0
DWIDTH 9 0
BBX 8 9 0 0
BITMAP
36
00
7c
46
7e
e6
c6
cf
77
ENDCHAR
STARTCHAR lacute
ENCODING 229
SWIDTH 361 0
DWIDTH 5 0
BBX 4 12 1 0
BITMAP
f0
00
60
60
60
60
60
60
60
60
60
60
ENDCHAR
STARTCHAR cacute
ENCODING 230
SWIDTH 545 0
DWIDTH 8 0
BBX 6 9 1 0
BITMAP
3c
00
3c
60
c0
c0
c0
60
3c
ENDCHAR
STARTCHAR ccedilla
ENCODING 231
SWIDTH 545 0
DWIDTH 8 0
BBX 6 10 1 -3
BITMAP
3c
60
c0
c0
c0
60
3c
10
10
38
ENDCHAR
STARTCHAR ccaron
ENCODING 232
SWIDTH 545 0
DWIDTH 8 0
BBX 6 9 1 0
BITMAP
7c
00
3c
60
c0
c0
c0
60
3c
ENDCHAR
STARTCHAR eacute
ENCODING 233
SWIDTH 614 0
DWIDTH 9 0
BBX 8 9 0 0
BITMAP
1e
00
3e
63
c3
ff
e0
70
3f
ENDCHAR
STARTCHAR eogonek
ENCODING 234
SWIDTH 614 0
DWIDTH 9 0
BBX 8 8 0 -1
BITMAP
3e
63
c3
ff
e0
70
3f
38
ENDCHAR
STARTCHAR ediaeresis
ENCODING 235
SWIDTH 614 0
DWIDTH 9 0
BBX 8 9 0 0
BITMAP
36
00
3e
63
c3
ff
e0
70
3f
ENDCHAR
STARTCHAR ecaron
ENCODING 236
SWIDTH 614 0
DWIDTH 9 0
BBX 8 9 0 0
BITMAP
3e
00
3e
63
c3
ff
e0
70
3f
ENDCHAR
STARTCHAR iacute
ENCODING 237
SWIDTH 361 0
DWIDTH 5 0
BBX 4 9 2 0
BITMAP
f0
00
c0
c0
c0
c0
c0
c0
c0
ENDCHAR
STARTCHAR icircumflex
ENCODING 238
SWIDTH 361 0
DWIDTH 5 0
BBX 5 9 3 0
BITMAP
f8
00
60
60
60
60
60
60
60
ENDCHAR
STARTCHAR dcaron
ENCODING 239
SWIDTH 1008 0
DWIDTH 14 0
BBX 12 11 1 0
BITMAP
0070
0370
0330
0360
3f00
6300
c300
c300
c300
e700
7b00
ENDCHAR
STARTCHAR dstroke
ENCODING 240
SWIDTH 936 0
DWIDTH 13 0
BBX 11 10 1 0
BITMAP
0300
1fe0
0300
3f00
6300
c300
c300
c300
e700
7b00
ENDCHAR
STARTCHAR nacute
ENCODING 241
SWIDTH 693 0
DWIDTH 10 0
BBX 7 9 1 0
BITMAP
3c
00
dc
e6
c6
c6
c6
c6
c6
ENDCHAR
STARTCHAR ncaron
ENCODING 242
SWIDTH 693 0
DWIDTH 10 0
BBX 7 9 1 0
BITMAP
7c
00
dc
e6
c6
c6
c6
c6
c6
ENDCHAR
STARTCHAR oacute
ENCODING 243
SWIDTH 675 0
DWIDTH 9 0
BBX 8 9 1 0
BITMAP
1e
00
3c
66
c3
c3
c3
66
3c
ENDCHAR
STARTCHAR ocircumflex
ENCODING 244
SWIDTH 675 0
DWIDTH 9 0
BBX 8 9 1 0
BITMAP
3e
00
3c
66
c3
c3
c3
66
3c
ENDCHAR
STARTCHAR odoubleacute
ENCODING 245
SWIDTH 675 0
DWIDTH 9 0
BBX 8 9 1 0
BITMAP
7c
00
3c
66
c3
c3
c3
66
3c
ENDCHAR
STARTCHAR odiaeresis
ENCODING 246
SWIDTH 675 0
DWIDTH 9 0
BBX 8 9 1 0
BITMAP
36
00
3c
66
c3
c3
c3
66
3c
ENDCHAR
STARTCHAR division
ENCODING 247
SWIDTH 687 0
DWIDTH 10 0
BBX 8 8 1 0
BITMAP
10
00
00
ff
00
00
00
10
ENDCHAR
STARTCHAR rcaron
ENCODING 248
SWIDTH 500 0
DWIDTH 7 0
BBX 5 9 1 0
BITMAP
f8
00
d8
f8
c0
c0
c0
c0
c0
ENDCHAR
STARTCHAR uring
ENCODING 249
SWIDTH 693 0
DWIDTH 10 0
BBX 7 9 1 0
BITMAP
18
00
c6
c6
c6
c6
c6
ce
76
ENDCHAR
STARTCHAR uacute
ENCODING 250
SWIDTH 693 0
DWIDTH 10 0
BBX 7 9 1 0
BITMAP
3c
00
c6
c6
c6
c6
c6
ce
76
ENDCHAR
STARTCHAR udoubleacute
ENCODING 251
SWIDTH 693 0
DWIDTH 10 0
BBX 7 9 1 0
BITMAP
7c
00
c6
c6
c6
c6
c6
ce
76
ENDCHAR
STARTCHAR udiaeresis
ENCODING 252
SWIDTH 693 0
DWIDTH 10 0
BBX 7 9 1 0
BITMAP
6c
00
c6
c6
c6
c6
c6
ce
76
ENDCHAR
STARTCHAR yacute
ENCODING 253
SWIDTH 645 0
DWIDTH 9 0
BBX 9 12 0 -3
BITMAP
1e00
0000
e180
6100
7200
3200
3400
1c00
1800
1800
3000
7000
ENDCHAR
STARTCHAR tcedilla
ENCODING 254
SWIDTH 436 0
DWIDTH 6 0
BBX 5 12 1 -3
BITMAP
60
60
f8
60
60
60
60
68
38
60
20
70
ENDCHAR
STARTCHAR abovedot
ENCODING 255
SWIDTH 675 0
DWIDTH 9 0
BBX 2 1 4 9
BITMAP
c0
ENDCHAR
ENDFONT
